# xmcd
#
# Track frame offsets: 
#        150
#        7092
#        18359
#        29686
#        40953
#        52350
#        63612
#        74104
#        85446
#        98483
#        111100
#        124312
#        137098
#        149635
#        162347
#
# Disc length: 2328 seconds
#
# Revision: 0
# Processed by: cddbd v1.5.2PL0 Copyright (c) Steve Scherf et al.
# Submitted via: ExactAudioCopy v0.95b4
#
DISCID=eb09160f
DTITLE=The Beatles  - Inside Sgt Pepper - CD 1  
DYEAR=1900
DGENRE=
TTITLE0=SPLHCB - from 1997 tv show the making of sgt pepper
TTITLE1=SPLHCB - rough mix
TTITLE2=SPLHCB - rough mix
TTITLE3=SPLHCB - backing vocals
TTITLE4=SPLHCB - backing track, guitars bass and drums
TTITLE5=SPLHCB - backing track, lead guitar and french horns
TTITLE6=SPLHCB - backing track, lead and backing vocals
TTITLE7=SPLHCB - crowd noise and applause
TTITLE8=WALHFMF - rough mix
TTITLE9=WALHFMF - backing track
TTITLE10=WALHFMF - just the vocals
TTITLE11=WALHFMF - backing track, guitars drums and piano
TTITLE12=WALHFMF - lead and backing vocals
TTITLE13=WALHFMF - more backing vocals
TTITLE14=WALHFMF - bass and percussion
EXTD=
EXTT0=
EXTT1=
EXTT2=
EXTT3=
EXTT4=
EXTT5=
EXTT6=
EXTT7=
EXTT8=
EXTT9=
EXTT10=
EXTT11=
EXTT12=
EXTT13=
EXTT14=
PLAYORDER=
